#!OML:ASF F:\twosubjects\two\Thursday\Session 1\justin.ASF
:FULLY-SPECIFIED
:DEGREES
432
root 9.45788 17.3002 -19.8137 -3.4113 -79.837 11.2662
lowerback -1.68376 0.83627 -3.182
upperback -3.64083 1.10967 2.56484
thorax -2.92258 0.659755 4.42841
lowerneck -20.6632 7.96206 -1.07362
upperneck 22.9271 12.107 -2.39725
head 10.903 5.04796 1.149
rclavicle 3.55949e-014 -3.18055e-015
rhumerus -36.8274 -18.1699 -74.5059
rradius 26.3223
rwrist -2.7383
rhand -14.046 10.0202
rfingers 7.12502
rthumb 12.0847 -19.6108
lclavicle 3.55949e-014 -3.18055e-015
lhumerus -33.9437 6.73044 86.7685
lradius 29.1019
lwrist -12.2011
lhand 1.30063 40.3674
lfingers 7.12502
lthumb 26.8356 68.4832
rfemur -14.5985 -0.527798 23.5497
rtibia 37.6867
rfoot -27.8182 -15.2309
rtoes -7.67872
lfemur -14.7943 4.0782 -22.0547
ltibia 29.7672
lfoot -20.7096 -9.21129
ltoes -2.86938
433
root 9.45353 17.3011 -19.8141 -3.82067 -79.8183 11.5883
lowerback -1.63347 0.861243 -3.26189
upperback -3.62651 1.14235 2.54514
thorax -2.94095 0.678629 4.45212
lowerneck -20.84 7.99586 -1.0576
upperneck 23.1459 12.1803 -2.43594
head 11.0224 5.06248 1.15863
rclavicle -5.23052e-015 -1.19271e-014
rhumerus -36.8521 -18.2351 -74.4565
rradius 26.3382
rwrist -2.44768
rhand -14.0884 9.87425
rfingers 7.12502
rthumb 12.0439 -19.7592
lclavicle -5.23052e-015 -1.19271e-014
lhumerus -33.8732 6.77205 86.7577
lradius 29.0556
lwrist -12.1561
lhand 1.25008 40.3944
lfingers 7.12502
lthumb 26.7872 68.5176
rfemur -14.421 -0.425332 23.4457
rtibia 37.7016
rfoot -28.0301 -15.1362
rtoes -5.27349
lfemur -14.6738 4.37299 -22.1018
ltibia 29.731
lfoot -20.842 -9.68679
ltoes -2.54859
434
root 9.45026 17.3037 -19.8148 -4.3203 -79.7557 11.9381
lowerback -1.55712 0.890764 -3.24749
upperback -3.56672 1.18083 2.46996
thorax -2.92335 0.695859 4.36408
lowerneck -20.9576 7.97675 -1.29356
upperneck 23.2538 12.1668 -2.1631
head 11.0471 5.06525 1.29597
rclavicle 6.31141e-015 2.38542e-014
rhumerus -36.7226 -18.341 -74.5032
rradius 26.1987
rwrist -2.17966
rhand -14.4614 9.58869
rfingers 7.12502
rthumb 11.6842 -20.0655
lclavicle 6.31141e-015 2.38542e-014
lhumerus -33.7742 6.47433 86.7928
lradius 28.9948
lwrist -11.9857
lhand 0.961786 40.3339
lfingers 7.12502
lthumb 26.5113 68.499
rfemur -14.1739 -0.297971 23.3377
rtibia 37.7338
rfoot -28.2531 -15.0776
rtoes -2.90387
lfemur -14.4657 4.41315 -22.1621
ltibia 29.6799
lfoot -20.9003 -9.56
ltoes -2.72406
435
root 9.45013 17.3017 -19.8156 -4.82604 -79.5768 12.4323
lowerback -1.56361 0.854357 -3.30374
upperback -3.56312 1.13159 2.39528
thorax -2.9105 0.671659 4.31883
lowerneck -20.9523 7.95608 -1.67535
upperneck 23.26 12.1246 -1.65902
head 10.9824 5.08201 1.52278
rclavicle 4.41053e-014 -1.11319e-014
rhumerus -36.6013 -18.2658 -74.6297
rradius 26.1419
rwrist -2.27742
rhand -14.8921 9.508
rfingers 7.12502
rthumb 11.2688 -20.1693
lclavicle 4.41053e-014 -1.11319e-014
lhumerus -33.7514 6.18487 86.8061
lradius 29.0562
lwrist -11.6479
lhand 1.04114 40.2941
lfingers 7.12502
lthumb 26.5872 68.4477
rfemur -14.2148 -0.582517 23.2489
rtibia 37.7744
rfoot -28.006 -15.3734
rtoes -4.83503
lfemur -14.441 4.4879 -22.3136
ltibia 29.6195
lfoot -20.9627 -9.4005
ltoes -3.62329
436
root 9.44799 17.2981 -19.8174 -4.64594 -79.4974 12.3085
lowerback -1.62 0.801339 -3.34963
upperback -3.60527 1.06136 2.42645
thorax -2.91736 0.638625 4.3789
lowerneck -20.8204 8.00451 -1.73462
upperneck 23.1843 12.1944 -1.63035
head 10.9229 5.11865 1.54342
rclavicle -3.844e-014 -1.35174e-014
rhumerus -36.5906 -18.1019 -74.6888
rradius 26.2247
rwrist -2.48528
rhand -14.6714 9.66004
rfingers 7.12502
rthumb 11.4817 -20.0055
lclavicle -3.844e-014 -1.35174e-014
lhumerus -33.8265 6.35391 86.7297
lradius 29.205
lwrist -11.4949
lhand 1.42685 40.3558
lfingers 7.12502
lthumb 26.9563 68.453
rfemur -14.3566 -0.761617 23.3024
rtibia 37.8245
rfoot -27.801 -15.6464
rtoes -6.25793
lfemur -14.5017 4.67198 -22.3331
ltibia 29.5557
lfoot -21.0501 -9.39597
ltoes -4.43376
437
root 9.44636 17.2996 -19.8172 -4.01505 -79.5015 11.6767
lowerback -1.63099 0.826875 -3.24865
upperback -3.63688 1.09561 2.47814
thorax -2.94625 0.654315 4.37518
lowerneck -20.6587 7.99557 -1.74287
upperneck 23.0802 12.2189 -1.80556
head 10.8677 5.11296 1.47643
rclavicle 1.88348e-014 7.15625e-015
rhumerus -36.6284 -18.1261 -74.6061
rradius 26.2614
rwrist -2.4494
rhand -14.1741 9.96356
rfingers 7.12502
rthumb 11.9612 -19.6747
lclavicle 1.88348e-014 7.15625e-015
lhumerus -33.9447 6.29442 86.8177
lradius 29.419
lwrist -11.3166
lhand 1.71019 40.5222
lfingers 7.12502
lthumb 27.2274 68.5771
rfemur -14.3417 -0.591392 23.3855
rtibia 37.8858
rfoot -28.108 -15.2408
rtoes -4.05661
lfemur -14.4755 4.6471 -22.2183
ltibia 29.4901
lfoot -21.0229 -9.31028
ltoes -4.62884
438
root 9.44758 17.3003 -19.8112 -3.86506 -79.4445 11.5369
lowerback -1.65177 0.860251 -3.1567
upperback -3.65447 1.14007 2.4669
thorax -2.95464 0.674015 4.31099
lowerneck -20.1343 7.91692 -2.34294
upperneck 22.7078 12.1791 -1.53539
head 10.5717 5.1077 1.61674
rclavicle -1.03617e-014 -6.36111e-015
rhumerus -36.6027 -18.2831 -74.5223
rradius 26.1921
rwrist -2.20371
rhand -14.3104 10.1651
rfingers 7.12502
rthumb 11.8298 -19.4807
lclavicle -1.03617e-014 -6.36111e-015
lhumerus -33.963 6.06299 86.9561
lradius 29.539
lwrist -11.2088
lhand 1.84664 40.4658
lfingers 7.12502
lthumb 27.3579 68.5002
rfemur -14.3809 -0.688517 23.3479
rtibia 37.9455
rfoot -28.2173 -14.9016
rtoes -3.32795
lfemur -14.4725 4.47288 -22.2152
ltibia 29.4455
lfoot -20.8807 -9.36938
ltoes -3.99523
439
root 9.44871 17.2985 -19.8077 -4.38305 -79.3848 12.0921
lowerback -1.70007 0.814462 -3.31668
upperback -3.64439 1.08031 2.48322
thorax -2.91546 0.648006 4.42017
lowerneck -20.0748 7.93251 -2.42917
upperneck 22.5739 12.2136 -1.52159
head 10.5047 5.12595 1.6321
rclavicle 4.5969e-015 2.06736e-014
rhumerus -36.4777 -18.5392 -74.3726
rradius 26.0506
rwrist -1.53951
rhand -14.5938 10.3575
rfingers 7.12502
rthumb 11.5565 -19.3039
lclavicle 4.5969e-015 2.06736e-014
lhumerus -33.8936 6.52064 86.8473
lradius 29.5353
lwrist -11.6026
lhand 2.01288 40.2717
lfingers 7.12502
lthumb 27.5169 68.2809
rfemur -14.5258 -0.870827 23.2529
rtibia 38.0042
rfoot -27.9843 -15.3156
rtoes -5.55753
lfemur -14.5067 4.45976 -22.3293
ltibia 29.4056
lfoot -20.7481 -9.64404
ltoes -3.0109
440
root 9.44894 17.2997 -19.8083 -4.95449 -79.3421 12.6907
lowerback -1.76058 0.825582 -3.51431
upperback -3.6093 1.09737 2.4729
thorax -2.85149 0.660348 4.52229
lowerneck -20.4808 8.12568 -1.75108
upperneck 22.6655 12.4185 -1.97462
head 10.6938 5.20523 1.42746
rclavicle 1.23371e-014 -3.33958e-014
rhumerus -36.3748 -18.7778 -74.2689
rradius 26.0431
rwrist -1.23407
rhand -14.7788 10.4101
rfingers 7.12502
rthumb 11.3781 -19.2612
lclavicle 1.23371e-014 -3.33958e-014
lhumerus -33.8075 6.72784 86.7816
lradius 29.6179
lwrist -11.7718
lhand 2.02901 40.2532
lfingers 7.12502
lthumb 27.5323 68.2599
rfemur -14.5705 -0.870789 23.1431
rtibia 38.0692
rfoot -28.0654 -15.5109
rtoes -5.98691
lfemur -14.5183 4.73933 -22.4377
ltibia 29.3443
lfoot -20.6575 -10.1437
ltoes -2.02975
441
root 9.44737 17.3076 -19.8087 -4.88003 -79.256 12.6375
lowerback -1.80054 0.887763 -3.50788
upperback -3.60282 1.181 2.42617
thorax -2.82969 0.700884 4.46956
lowerneck -20.5056 8.11009 -1.69443
upperneck 22.6735 12.3969 -2.03618
head 10.7102 5.19119 1.39606
rclavicle -3.74212e-014 3.97569e-015
rhumerus -36.3327 -18.4466 -74.5073
rradius 26.266
rwrist -2.00228
rhand -15.1523 9.92744
rfingers 7.12502
rthumb 11.0178 -19.7634
lclavicle -3.74212e-014 3.97569e-015
lhumerus -33.7609 6.4746 86.8283
lradius 29.7894
lwrist -11.6554
lhand 1.83231 40.3562
lfingers 7.12502
lthumb 27.3442 68.3928
rfemur -14.5828 -0.910775 23.1259
rtibia 38.1041
rfoot -28.2663 -15.241
rtoes -4.56729
lfemur -14.528 4.96623 -22.4313
ltibia 29.3238
lfoot -20.7648 -10.6751
ltoes -1.66929
442
root 9.44734 17.3116 -19.8084 -4.74272 -79.1647 12.4678
lowerback -1.75969 0.824506 -3.53061
upperback -3.57385 1.09682 2.4665
thorax -2.81534 0.659389 4.52496
lowerneck -20.9776 8.40961 -1.08582
upperneck 22.9108 12.7506 -2.37645
head 10.9559 5.3372 1.27106
rclavicle 4.14466e-014 1.66979e-014
rhumerus -36.1391 -17.5672 -74.9111
rradius 26.4275
rwrist -2.84646
rhand -15.3164 9.60694
rfingers 7.12502
rthumb 10.8596 -20.0923
lclavicle 4.14466e-014 1.66979e-014
lhumerus -33.7656 6.89567 86.7381
lradius 29.9671
lwrist -11.8523
lhand 1.68668 40.5268
lfingers 7.12502
lthumb 27.2049 68.5853
rfemur -14.5828 -0.961455 23.1311
rtibia 38.133
rfoot -28.2813 -15.0323
rtoes -3.73015
lfemur -14.4825 4.82327 -22.3909
ltibia 29.3101
lfoot -20.8447 -10.8194
ltoes -1.78191
443
root 9.44952 17.3028 -19.8066 -4.74815 -79.1163 12.4082
lowerback -1.73134 0.782503 -3.58106
upperback -3.50942 1.04255 2.55357
thorax -2.76196 0.632896 4.64497
lowerneck -21.086 8.521 -1.37141
upperneck 22.9426 12.9617 -2.21003
head 10.9548 5.42687 1.40979
rclavicle -1.34925e-014 7.95139e-016
rhumerus -35.9287 -16.7932 -75.1262
rradius 26.4983
rwrist -3.28497
rhand -15.1603 9.77392
rfingers 7.12502
rthumb 11.0101 -19.9173
lclavicle -1.34925e-014 7.95139e-016
lhumerus -33.7155 7.26311 86.7734
lradius 30.076
lwrist -11.9989
lhand 1.49137 40.5307
lfingers 7.12502
lthumb 27.0181 68.6182
rfemur -14.4705 -0.999456 23.1095
rtibia 38.1733
rfoot -28.5467 -14.7222
rtoes -3.30372
lfemur -14.4066 4.61258 -22.3749
ltibia 29.2617
lfoot -20.6847 -10.7381
ltoes -1.66756
444
root 9.44915 17.3018 -19.8058 -4.68335 -79.0755 12.3315
lowerback -1.75292 0.783717 -3.5878
upperback -3.47885 1.0459 2.61215
thorax -2.72002 0.634121 4.71037
lowerneck -20.8373 8.64188 -2.00229
upperneck 22.8673 13.2551 -1.97147
head 10.8153 5.54654 1.61425
rclavicle 2.23757e-014 1.74931e-014
rhumerus -35.8065 -16.3073 -75.2008
rradius 26.571
rwrist -3.45806
rhand -14.8809 9.87471
rfingers 7.12502
rthumb 11.2796 -19.802
lclavicle 2.23757e-014 1.74931e-014
lhumerus -33.6124 7.42711 86.8221
lradius 30.0462
lwrist -12.1127
lhand 1.39528 40.555
lfingers 7.12502
lthumb 26.9261 68.6568
rfemur -14.4334 -0.972728 23.1186
rtibia 38.1934
rfoot -28.7914 -14.5907
rtoes -3.15685
lfemur -14.386 4.62971 -22.3657
ltibia 29.2409
lfoot -20.5852 -10.8148
ltoes -1.48063
